<svg id="Gradient" viewBox="0 0 512 512" xmlns="http://www.w3.org/2000/svg" xmlns:xlink="http://www.w3.org/1999/xlink"><linearGradient id="linear-gradient" gradientUnits="userSpaceOnUse" x1="244.681" x2="244.681" y1="496" y2="16"><stop offset="0" stop-color="#12c2e9"></stop><stop offset=".5" stop-color="#c471ed"></stop><stop offset="1" stop-color="#f64f59"></stop></linearGradient><path d="m426.343 303.03-113.373-113.373a24.025 24.025 0 0 0 -33.94 0l-1.373 1.373a24.025 24.025 0 0 0 0 33.94l2.022 2.022-14.263 149.772a7.965 7.965 0 0 1 -7.966 7.236h-2.23a8 8 0 0 1 -7.99-7.6l-.42-8.4h9.19a8 8 0 0 0 8-8v-32a8 8 0 0 0 -8-8h-11.59l-1.278-25.53a23.942 23.942 0 0 0 -1.532-30.765l-1.5-29.925a23.954 23.954 0 0 0 1.769-33.78 23.965 23.965 0 0 0 -5.278-36.421l-.98-19.579h4.389a8 8 0 0 0 8-8v-32a8 8 0 0 0 -8-8h-6.79l-1.21-24.211a39.99 39.99 0 0 0 -40-39.789h-56v-8a8 8 0 0 0 -8-8h-24a8 8 0 0 0 -5 1.753l-40 32a8 8 0 0 0 -3 6.247v16a8 8 0 0 0 8 8h96a8.009 8.009 0 0 1 8 8v8h-8a8 8 0 0 0 -8 8v32a8 8 0 0 0 8 8h8v32h-8a24.027 24.027 0 0 0 -24 24v64a24.027 24.027 0 0 0 24 24h8v32h-8a8 8 0 0 0 -8 8v32a8 8 0 0 0 8 8h8v24a104.118 104.118 0 0 0 104 104h16a104.118 104.118 0 0 0 104-104v-52.78a23.972 23.972 0 0 0 32.97-.877l1.373-1.373a24.025 24.025 0 0 0 0-33.94zm-306.343-239.03h-48v-4.155l34.806-27.845h13.194zm176 256a16 16 0 1 1 16 16 16.019 16.019 0 0 1 -16-16zm32 48a16 16 0 1 1 -16-16 16.019 16.019 0 0 1 16 16zm-42.773-30.5a32.233 32.233 0 0 0 5.641 6.5 32.2 32.2 0 0 0 -7.115 8.984zm-53.227-57.5a8 8 0 1 1 -8-8 8.009 8.009 0 0 1 8 8zm-6.8-23.97c-.4-.019-.794-.03-1.195-.03a24.038 24.038 0 0 0 -22.624 16h-17.381v-48h17.376a24.038 24.038 0 0 0 22.624 16c.132 0 .262-.008.393-.01zm-23.824-64.03a24.015 24.015 0 0 0 4.755 8 24.015 24.015 0 0 0 -4.755 8h-17.376v-16zm14.624-8a8 8 0 1 1 8 8 8.009 8.009 0 0 1 -8-8zm16 32a8 8 0 1 1 -8-8 8.009 8.009 0 0 1 8 8zm-72-152h-24v-16h56a23.992 23.992 0 0 1 24 24c0 .133 0 .267.01.4l1.18 23.6h-33.19v-8a24.027 24.027 0 0 0 -24-24zm8 48h64v16h-64zm16 32h35.591l.814 16.27a24.071 24.071 0 0 0 -19.029 15.73h-17.376zm-24 48h8v16h-16v-8a8.009 8.009 0 0 1 8-8zm0 80a8.009 8.009 0 0 1 -8-8v-40h16v48zm24 16h17.376a24 24 0 0 0 26.2 15.733l.814 16.267h-44.39zm-16 48h80v16h-80zm120 144h-16a88.1 88.1 0 0 1 -88-88v-24h46.79l.461 9.2a23.988 23.988 0 0 0 23.969 22.8h2.23a23.9 23.9 0 0 0 23.894-21.722l.079-.835a32 32 0 1 0 51.709-33.443 31.979 31.979 0 1 0 -44.122-46.226l5.344-56.107 81.646 81.647v68.686a88.1 88.1 0 0 1 -88 88zm127.03-154.343-1.373 1.373a8.01 8.01 0 0 1 -11.314 0l-113.373-113.373a8.01 8.01 0 0 1 0-11.314l1.373-1.373a8.01 8.01 0 0 1 11.314 0l113.373 113.373a8.01 8.01 0 0 1 0 11.314z" fill="url(#linear-gradient)"></path></svg>